<svg width="1920" height="275" viewBox="0 0 1920 275" fill="none" xmlns="http://www.w3.org/2000/svg">
<path d="M0.4999 82.1026C26.9642 82.1818 41.8064 82.2108 68.9821 80.1062C103.389 78.4023 122.986 76.7482 158.459 72.6199C183.728 69.095 197.537 67.9793 221.442 67.629C244.942 68.1074 256.911 70.6318 276.428 78.6089L336.412 110.052C362.216 122.219 377.079 128.267 404.395 137.501C404.395 137.501 431.388 153.971 460.88 164.452C490.372 174.933 518.865 199.888 537.86 207.374C545.545 210.37 550.011 211.241 558.355 210.868C592.803 210.713 611.708 212.134 644.832 216.857L687.321 222.846C752.682 234.674 785.365 232.34 837.782 214.86C866.734 200.823 861.776 203.381 912.262 169.443C962.749 135.505 975.54 127.772 1061.72 130.514C1085.04 128.082 1097.81 123.175 1120.21 110.052L1134.7 101.068L1174.69 72.6199C1210.1 51.138 1232.66 43.6461 1279.67 41.6763C1323.67 42.5294 1348.41 45.7856 1392.64 55.6508C1548.08 82.6852 1627 75.1583 1751.04 15.7237C1773.03 5.89256 1787.79 3.759 1819.03 6.74008C1856.38 10.6735 1878.71 9.96661 1919.5 1.5V275.25H0V82.1026H0.4999Z" fill="url(#paint0_linear_315_127)" stroke="url(#paint1_linear_315_127)"/>
<defs>
<linearGradient id="paint0_linear_315_127" x1="960" y1="116" x2="960" y2="358" gradientUnits="userSpaceOnUse">
<stop stop-color="#168AAD"/>
<stop offset="1" stop-color="#001A2C"/>
</linearGradient>
<linearGradient id="paint1_linear_315_127" x1="960" y1="114" x2="960" y2="370.5" gradientUnits="userSpaceOnUse">
<stop stop-color="#168AAD"/>
<stop offset="1" stop-color="#001A2C"/>
</linearGradient>
</defs>
</svg>
