<svg width="1033" height="595" viewBox="0 0 1033 595" fill="none" xmlns="http://www.w3.org/2000/svg">
<path d="M0 401V326H9C41.7744 325.415 60.7096 324.55 95 322.5L127.5 98L158.5 307.5L190.5 0.5L223.5 304.5H226L257 35.5L287 280.5L306 147L330.5 312.5L376.5 331.5C399.094 340.858 415 346 437 347C471.644 352.801 490.312 356.699 522 365C585.719 380.872 620.673 391.442 682 412.5L725.5 428.5C744.412 437.303 772 453 772 453L820.5 470.5C919.972 502.637 967.554 528.519 1031.5 595H920.5H830.5H0V401Z" fill="#52B69A"/>
<path d="M772 453C772 453 744.412 437.303 725.5 428.5L682 412.5C620.673 391.442 585.719 380.872 522 365C490.312 356.699 471.644 352.801 437 347C415 346 399.094 340.858 376.5 331.5L330.5 312.5L306 147L287 280.5L257 35.5L226 304.5H223.5L190.5 0.5L158.5 307.5L127.5 98L95 322.5C60.7096 324.55 41.7744 325.415 9 326H0V401V595H830.5C848 595 898 595 920.5 595C946 595 1002 595 1031.5 595C967.554 528.519 919.972 502.637 820.5 470.5M772 453C772 453 803.085 465.184 820.5 470.5M772 453L820.5 470.5" stroke="#52B69A"/>
</svg>
