<svg width="1370" height="811" viewBox="0 0 1370 811" fill="none" xmlns="http://www.w3.org/2000/svg">
<path d="M1083.5 138.5L1223.5 0L1053.5 138.5H1083.5Z" fill="#CAF0F8"/>
<path d="M1370 122L1301.5 18L1270 20L1223.5 0L1083.5 138.5H1053.5L1016 126L983.5 138.5L915.5 96L813.5 183H783H771.5L590.5 270L462 351L196.5 492.5L0.5 811H1370V122Z" fill="#ADE8F4"/>
<path d="M590.5 270L771.5 183H742.5L562 270L432 351L58 501.5L196.5 492.5L462 351L590.5 270Z" fill="#CAF0F8"/>
<path d="M813.5 183L915.5 96L783 183H813.5Z" fill="#CAF0F8"/>
</svg>
