<svg width="1185" height="526" viewBox="0 0 1185 526" fill="none" xmlns="http://www.w3.org/2000/svg">
<path d="M0 168V256V526H1184V341.5C1110.6 333.886 1068.5 327.455 989 306C978.732 303.143 973.131 301.109 963.5 296.5C948.787 287.422 941.042 283.033 928.5 277L865.5 247C824.715 228.609 802.59 217.755 765 197C757.052 185.893 751.609 182.725 740 183C726.656 182.89 719.74 183.64 708.5 186.5C692.573 190.969 683.606 193.133 667.5 196L641.5 24L616 201H612.5L585.5 0.5L558 204L531.5 65L505 208L462 213C430.527 215.664 415.965 214.036 396 205C365.099 184.967 349.137 176.168 326 170C275.459 157.75 247.905 154.457 200.5 156C154.248 160.815 129.847 162.722 88.5 165L0 168Z" fill="#76C893" stroke="#76C893"/>
</svg>
