<svg width="1084" height="652" viewBox="0 0 1084 652" fill="none" xmlns="http://www.w3.org/2000/svg">
<path d="M32.5 543.5C15.4655 559.849 8.47775 570.41 1 592V652H1083.5V236H1066L1036.5 42L1009.5 223.5L981.5 21.5L955 218L929.5 84L902.5 231C846.811 225.064 816.082 232.756 761.5 251.5H757.5L724.5 32.5L692.5 253H683.5L649 1L616.5 251.5H608.5L577.5 87.5L544.5 268.5C505.717 282.389 482.411 289.704 440 302.5L379.5 320.5C353.613 327.509 339.765 332.402 316 342.5C293.992 353 282.429 361.107 263 379C254.346 387.067 249.224 391.255 239.5 398C229.673 404.046 223.174 407.353 208.5 413C171.041 419.685 151.932 430.099 120.5 458C109.493 468.46 103.46 473.967 93 483C76.4984 495.561 68.3054 502.878 56 516.5C46.3684 528.281 41.2125 534.207 32.5 543.5Z" fill="#34A0A4" stroke="#34A0A4"/>
</svg>
