<svg width="636" height="621" viewBox="0 0 636 621" fill="none" xmlns="http://www.w3.org/2000/svg">
<g filter="url(#filter0_d_386_36)">
<path fill-rule="evenodd" clip-rule="evenodd" d="M298.084 422.516C420.767 422.516 520.222 323.062 520.222 200.378C520.222 126.097 483.762 60.3307 427.762 20C536.06 47.7681 615.999 144.682 615.999 259.972C615.999 396.919 503.208 507.937 364.073 507.937C253.595 507.937 159.727 437.942 125.746 340.549C166.478 390.568 228.55 422.516 298.084 422.516Z" fill="white"/>
</g>
<g filter="url(#filter1_d_386_36)">
<path fill-rule="evenodd" clip-rule="evenodd" d="M53.6506 546.382L43.1068 531.191L58.3004 541.737L66.073 508.08L73.8691 541.838L89.2851 531.141L78.6804 546.425L112.146 554.153L78.5125 561.92L89.1039 577.179L73.842 566.586L66.073 600.226L58.3273 566.686L43.1848 577.196L53.7663 561.951L20 554.153L53.6506 546.382Z" fill="white"/>
</g>
<defs>
<filter id="filter0_d_386_36" x="105.746" y="0" width="530.254" height="527.937" filterUnits="userSpaceOnUse" color-interpolation-filters="sRGB">
<feFlood flood-opacity="0" result="BackgroundImageFix"/>
<feColorMatrix in="SourceAlpha" type="matrix" values="0 0 0 0 0 0 0 0 0 0 0 0 0 0 0 0 0 0 127 0" result="hardAlpha"/>
<feOffset/>
<feGaussianBlur stdDeviation="10"/>
<feComposite in2="hardAlpha" operator="out"/>
<feColorMatrix type="matrix" values="0 0 0 0 1 0 0 0 0 1 0 0 0 0 1 0 0 0 1 0"/>
<feBlend mode="normal" in2="BackgroundImageFix" result="effect1_dropShadow_386_36"/>
<feBlend mode="normal" in="SourceGraphic" in2="effect1_dropShadow_386_36" result="shape"/>
</filter>
<filter id="filter1_d_386_36" x="0" y="488.08" width="132.145" height="132.146" filterUnits="userSpaceOnUse" color-interpolation-filters="sRGB">
<feFlood flood-opacity="0" result="BackgroundImageFix"/>
<feColorMatrix in="SourceAlpha" type="matrix" values="0 0 0 0 0 0 0 0 0 0 0 0 0 0 0 0 0 0 127 0" result="hardAlpha"/>
<feOffset/>
<feGaussianBlur stdDeviation="10"/>
<feComposite in2="hardAlpha" operator="out"/>
<feColorMatrix type="matrix" values="0 0 0 0 1 0 0 0 0 1 0 0 0 0 1 0 0 0 1 0"/>
<feBlend mode="normal" in2="BackgroundImageFix" result="effect1_dropShadow_386_36"/>
<feBlend mode="normal" in="SourceGraphic" in2="effect1_dropShadow_386_36" result="shape"/>
</filter>
</defs>
</svg>
