<svg width="427" height="80" viewBox="0 0 427 80" fill="none" xmlns="http://www.w3.org/2000/svg">
<path d="M80.0349 36.9505C71.2737 44.3099 56.503 44.5415 55.0021 52.5C53.5011 60.4585 44.0011 67.5 35.0011 66.5C26.0011 65.5 0.5 80 0.5 80H427.001L399.007 65.7819C386.366 58.0954 379.102 54.1431 365.493 48.4043C354.77 43.7145 348.209 42.4537 334.345 45.6397C308.717 58.2779 302.207 55.9436 284.272 39.7155C259.741 23.6614 238.705 22.8098 217.639 39.7155C201.101 44.9771 191.055 38.7369 172.691 22.3379L161.651 13.6487C128.037 -7.85201 104.363 -3.98526 89.4976 25.4971C86.8731 29.7359 84.9777 32.2033 80.0349 36.9505Z" fill="url(#paint0_linear_315_128)"/>
<defs>
<linearGradient id="paint0_linear_315_128" x1="234" y1="0" x2="234" y2="80" gradientUnits="userSpaceOnUse">
<stop stop-color="white"/>
<stop offset="1" stop-color="white" stop-opacity="0"/>
</linearGradient>
</defs>
</svg>
