<svg width="490" height="102" viewBox="0 0 490 102" fill="none" xmlns="http://www.w3.org/2000/svg">
<path d="M49.5 46.7792C38.3897 56.0961 35.5 59 19.5 71.5C3.5 84 0 101.28 0 101.28H489.5L454 83.2795C437.969 73.5485 428.757 68.5448 411.5 61.2795C397.901 55.3423 389.581 53.7461 372 57.7795C339.5 73.7795 331.244 70.8242 308.5 50.2795C277.392 29.9553 250.716 28.8771 224 50.2795C203.029 56.9408 190.288 49.0407 167 28.2796L153 17.2792C110.373 -9.9406 80.351 -5.04532 61.5 32.2792C58.1718 37.6455 55.7682 40.7692 49.5 46.7792Z" fill="url(#paint0_linear_315_120)"/>
<defs>
<linearGradient id="paint0_linear_315_120" x1="244.75" y1="0" x2="244.75" y2="101.28" gradientUnits="userSpaceOnUse">
<stop stop-color="white"/>
<stop offset="1" stop-color="white" stop-opacity="0"/>
</linearGradient>
</defs>
</svg>
