<svg width="813" height="153" viewBox="0 0 813 153" fill="none" xmlns="http://www.w3.org/2000/svg">
<path d="M812.5 152.502H0.5C2.87075 140.004 9.92728 135.955 37.5 136.5C56.3174 136.842 66.6862 132.699 85 121C102 85.5 106 82.5 143 81C180 79.5 195.384 84.6208 226.5 97C292.824 135.814 321.835 130.507 361.5 81C371.306 68.6344 378.425 62.8481 401 59.4999C419.004 59.8181 436.182 62.9427 456.997 63C471.744 58.2999 486.091 47.692 505 29.5019C544.5 -8.49626 606.762 -9.11708 674.5 29.5019C713.731 74.0739 734.106 96.1451 746 91.5015C798.884 69.7321 813.624 82.7759 812.5 152.502Z" fill="url(#paint0_linear_315_121)"/>
<defs>
<linearGradient id="paint0_linear_315_121" x1="406.529" y1="0.77002" x2="406.529" y2="152.502" gradientUnits="userSpaceOnUse">
<stop stop-color="white"/>
<stop offset="1" stop-color="white" stop-opacity="0"/>
</linearGradient>
</defs>
</svg>
