<svg width="588" height="118" viewBox="0 0 588 118" fill="none" xmlns="http://www.w3.org/2000/svg">
<path d="M130 64.9232C120.997 68.9418 112.968 70.621 104.5 70.5001C91.4939 69.1472 79.9151 66.6864 69 63.578C30.2583 57.0213 22.0978 63.9053 0.5 117.5H587.5C577.9 105.6 573.49 98.4669 554.5 99C535.51 99.5331 488.066 102.134 465.5 70C437.404 43.0298 420.361 35.6927 386.5 43.5L355 49C341.057 49.8871 333.772 47.9693 322 39C308.964 22.606 300.774 15.5286 284.5 6.99992C265.94 -0.0754309 254.525 -1.68722 230.5 3.99993L229 4C206.284 13.321 195.581 20.3063 178.5 34.4999C157.475 50.3442 143.135 59.7023 130 64.9232Z" fill="url(#paint0_linear_315_119)"/>
<defs>
<linearGradient id="paint0_linear_315_119" x1="294.469" y1="0.559082" x2="293.531" y2="117.5" gradientUnits="userSpaceOnUse">
<stop stop-color="white"/>
<stop offset="1" stop-color="white" stop-opacity="0"/>
</linearGradient>
</defs>
</svg>
